<svg xmlns="http://www.w3.org/2000/svg" xmlns:cc="http://creativecommons.org/ns#" xmlns:dc="http://purl.org/dc/elements/1.1/" xmlns:rdf="http://www.w3.org/1999/02/22-rdf-syntax-ns#" width="384" height="384" version="1.1" xml:space="preserve" style=""><rect id="backgroundrect" width="100%" height="100%" x="0" y="0" fill="none" stroke="none"/><title>Godot Game engine logo</title><desc>A free and open source cross-platform game engine</desc><metadata><rdf:RDF><cc:Work rdf:about=""><dc:format>image/svg+xml</dc:format><dc:type rdf:resource="http://purl.org/dc/dcmitype/StillImage"/><dc:title/></cc:Work></rdf:RDF></metadata><defs><filter xmlns:inkscape="http://www.inkscape.org/namespaces/inkscape" id="f001" inkscape:label="Matte jelly" x="0" y="0" width="1" height="1" inkscape:menu="ABCs" inkscape:menu-tooltip="Bulging, matte jelly covering" color-interpolation-filters="sRGB">
            <feColorMatrix values="1 0 0 0 0 0 1 0 0 0 0 0 1 0 0 0 0 0 0.85 0" result="result0" in="SourceGraphic"/>
            <feGaussianBlur in="SourceAlpha" stdDeviation="7"/>
            <feSpecularLighting surfaceScale="5" specularConstant=".9" specularExponent="25">
                <feDistantLight elevation="60" azimuth="225"/>
            </feSpecularLighting>
            <feComposite operator="atop" in2="result0"/>
        </filter></defs><g class="currentLayer" style=""><title>Layer 1</title><g class="" id="svg_2" filter="" opacity="1"><g style="stroke-width:.8841" stroke-width="0" id="svg_33" class="" filter="" opacity="1"><path d="m359.4757316988395,257.3824942726342 s-0.5579325364530096,-3.4231307005763054 -0.8841084808409235,-3.3922298216342925 l-62.1107666734457,5.993053799253702 c-4.942423915225267,0.47724690810442205 -8.780999766021967,4.4188256887078285 -9.127776296371222,9.371549896913766 l-1.7064152037978173,24.463195829093458 l-48.05086675482988,3.4282808470666413 l-3.2686263058662415,-22.162797063410284 c-0.7278873706340799,-4.930406906747818 -5.033409836554527,-8.647095957273246 -10.01703492370248,-8.647095957273246 h-65.56136482197046 c-4.981908371651173,0 -9.287430837571621,3.716689050525427 -10.0153182082057,8.647095957273246 l-3.2703430213630207,22.162797063410284 l-48.05086675482988,-3.4282808470666413 l-1.7064152037978173,-24.463195829093458 c-0.34677653034925576,-4.954440923702718 -4.185352381145955,-8.896019704306127 -9.127776296371222,-9.373266612410546 l-62.145100983381276,-5.991337083756925 c-0.32102579789757796,-0.03090087894201291 -0.5562158209562297,3.39566325262785 -0.8772416188538088,3.39566325262785 l-0.08411905934214658,13.441882339775562 l52.63449713122845,8.487441416072846 l1.7235823587656012,24.669201688706874 c0.3484932458460333,4.995642095625401 4.379341232281924,9.035073659545183 9.378416758900881,9.393867198371888 l66.17938240081072,4.720967616140843 c0.2506404625296598,0.017167154967784974 0.497847494065763,0.02746744794845595 0.745054525601864,0.02746744794845595 c4.97332479416728,0 9.271980398100615,-3.7184057660222054 9.999867768734694,-8.648812672770024 l3.3630456581890584,-22.815148952186107 h48.06803390979767 l3.3630456581890584,22.815148952186107 c0.7261706551373006,4.9286901912510395 5.02997640556097,8.647095957273246 10.010168061715365,8.647095957273246 c0.2437736005425454,0 0.4875472010850908,-0.008583577483892489 0.7261706551373006,-0.025750732451677385 l66.1965495557785,-4.720967616140843 c4.997358811122179,-0.35879353882670423 9.029923513054849,-4.398225102746488 9.378416758900881,-9.393867198371888 l1.7218656432688237,-24.669201688706874 l52.600162821292884,-8.525209157001973 z" style="fill:#fff" stroke-width="0" id="svg_34" filter="" opacity="1"/></g><g style="stroke-width:.8841" stroke-width="0" id="svg_35" class="" filter="" opacity="1"><path d="m23.57021495517956,156.14029830877462 v101.35488292980193 c0.18540527365207696,0.0017167154967784946 0.3708105473041558,0.008583577483892489 0.5544991054594516,0.025750732451677385 l62.145100983381276,5.991337083756925 c3.2548925818920136,0.314158935910464 5.805931810104847,2.9338667839944366 6.032538255679608,6.195626227873564 l1.9158544944047946,27.43311363852024 l54.196708233296874,3.8677600142419344 l3.7338562054932116,-25.321553577482703 c0.4841137700915351,-3.2823600298404694 3.2995271848082552,-5.7149458887755875 6.61965495557785,-5.7149458887755875 h65.56136482197046 c3.3184110552728177,0 6.133824469989539,2.4325858589351177 6.617938240081072,5.7149458887755875 l3.7338562054932116,25.321553577482703 l54.213875388264654,-3.8677600142419344 l1.9141377789080143,-27.43311363852024 c0.22832316107153924,-3.2617594438791278 2.7776456737875943,-5.879750576466322 6.032538255679608,-6.195626227873564 l62.1107666734457,-5.991337083756925 c0.18368855815529886,-0.017167154967784974 0.36737711631059716,-0.024034016954898894 0.5527823899626725,-0.025750732451677385 v-8.087446705323458 l0.025750732451677385,-0.008583577483892489 v-93.25198578500748 h0.2300398765683182 c8.231650807052851,-10.506298840284348 15.848717466259002,-21.5791137945056 23.158492051541806,-33.3901164123416 c-9.701159272295236,-16.51480307900906 -21.596280949473382,-31.278556351304054 -34.2999756256342,-44.94361170566082 c-11.783535169887543,5.931252041369677 -23.227160671412946,12.65047649576068 -34.04246830111742,19.793729677855968 c-5.409370530349016,-5.3767529359102255 -11.501993828415872,-9.774978038656712 -17.493330912172794,-14.372342139029502 c-5.879750576466322,-4.7226843316376215 -12.506272394031289,-8.185299488639831 -18.798034689724446,-12.219580906069279 c1.8712198914885527,-13.93457968735099 2.7965295442521567,-27.656286653101446 3.169056807053089,-41.97369389623403 c-16.2160945825696,-8.161265471684935 -33.51028649711609,-13.572352717530727 -51.003617409288886,-17.458996602237224 c-6.98359864089489,11.737183851474523 -13.369780288910867,24.446028674125674 -18.935371929466726,36.875048870801926 c-6.595620938622952,-1.10213134893179 -13.222142756187917,-1.5107096371650712 -19.86239829772711,-1.5896785500168806 v-0.010300292980670972 c-0.04635131841301949,0 -0.08926920583248159,0.010300292980670972 -0.12875366225838678,0.010300292980670972 c-0.041201171922683855,0 -0.08411905934214658,-0.010300292980670972 -0.12532023126483002,-0.010300292980670972 v0.010300292980670972 c-6.647122403526307,0.07896891285181079 -13.268494074600936,0.4875472010850908 -19.86239829772711,1.5896785500168806 c-5.558724778568745,-12.425586765682699 -11.941472995591166,-25.13271487283707 -18.935371929466726,-36.875048870801926 c-17.47616375720501,3.8866438847064977 -34.780655964732176,9.297731130552293 -50.9864502543211,17.458996602237224 c0.3708105473041558,14.31740724313259 1.2961202000677587,28.03396406239271 3.172490238046646,41.97369389623403 c-6.296912442183495,4.0342814174294475 -12.914850682264568,7.496896574431658 -18.798034689724446,12.219580906069279 c-5.975886644285917,4.597364100372792 -12.078810235333442,8.995589203119279 -17.493330912172794,14.372342139029502 c-10.810157483214141,-7.150120044082403 -22.248632838249208,-13.869344498473408 -34.04246830111742,-19.793729677855968 c-12.70541139165759,13.67363893184066 -24.58336591386795,28.428808626651765 -34.28280847066641,44.94361170566082 c7.30119100779891,11.811002617835998 14.923407813495398,22.88381757205725 23.158492051541806,33.3901164123416 z" style="fill:#478cbf" stroke-width="0" id="svg_36" filter="" opacity="1"/></g><g style="stroke-width:.8841" stroke-width="0" id="svg_37" class="" filter="" opacity="1"><path d="m303.7697558086799,276.2041319030968 l-1.9244380718886853,27.57045087826252 c-0.2317565920650967,3.3235612017631535 -2.8754984571039683,5.969019782298804 -6.199059658867122,6.2076432363510134 l-66.1965495557785,4.7226843316376215 c-0.16137125669717794,0.012017008477449487 -0.3227425133943564,0.017167154967784974 -0.4823970545947555,0.017167154967784974 c-3.289226891827584,0 -6.1269576080024235,-2.413701988470555 -6.612788093590737,-5.716662604272366 l-3.7956579633772374,-25.73356529670954 h-54.00786952865124 l-3.7956579633772374,25.73356529670954 c-0.509864502543212,3.464331872498989 -3.6068192587316035,5.9552860583245755 -7.095185148185492,5.6994954493045835 l-66.1965495557785,-4.7226843316376215 c-3.3235612017631535,-0.23862345405221091 -5.9673030668020255,-2.8840820345878604 -6.199059658867122,-6.2076432363510134 l-1.9244380718886853,-27.57045087826252 l-55.879089420139785,-5.387053228890896 c0.025750732451677385,6.005070807731152 0.10300292980670976,12.58352459138632 0.10300292980670976,13.893378515428305 c0,59.00351162427663 74.84879565954209,87.38081878602505 167.8604412750006,87.70699473041297 h0.22832316107153924 c93.01164561545849,-0.3261759443879136 167.8432741200328,-28.686315951168538 167.8432741200328,-87.70699473041297 c0,-1.3338879409968853 0.08068562834858958,-7.884874276703596 0.10815307629704554,-13.893378515428305 z" style="fill:#478cbf" stroke-width="0" id="svg_38" filter="" opacity="1"/></g><g style="stroke-width:.8841" stroke-width="0" id="svg_39" class="" filter="" opacity="1"><path d="m140.90187534507976,197.27468377535024 c0,20.686421736180783 -16.76372682604194,37.45873213970662 -37.441564984738825,37.45873213970662 c-20.669254581213,0 -37.441564984738825,-16.760293395048382 -37.441564984738825,-37.45873213970662 c0,-20.669254581213 16.768876972532272,-37.424397829771046 37.441564984738825,-37.424397829771046 c20.686421736180783,0 37.441564984738825,16.751709817564493 37.441564984738825,37.424397829771046 " style="fill:#fff" stroke-width="0" id="svg_40" filter="" opacity="1"/></g><g style="stroke-width:.8841" stroke-width="0" id="svg_41" class="" filter="" opacity="1"><path d="m131.94641873058544,199.39970737878957 c0,13.723423681247235 -11.122599703627825,24.840873238384727 -24.858040393352507,24.840873238384727 c-13.726857112240793,0 -24.858040393352507,-11.122599703627825 -24.858040393352507,-24.840873238384727 s11.129466565614937,-24.858040393352507 24.858040393352507,-24.858040393352507 c13.733723974227907,0 24.858040393352507,11.132899996608497 24.858040393352507,24.858040393352507 " style="fill:#414042" stroke-width="0" id="svg_42" filter="" opacity="1"/></g><g style="stroke-width:.8841" stroke-width="0" id="svg_43" class="" filter="" opacity="1"><path d="m191.59886702713237,238.10549444143453 c-6.657422696506977,0 -12.053059502881766,-4.9063728897929195 -12.053059502881766,-10.954361584943534 v-34.47164717531204 c0,-6.042838548660278 5.395636806374789,-10.954361584943534 12.053059502881766,-10.954361584943534 s12.065076511359214,4.911523036283255 12.065076511359214,10.954361584943534 v34.47164717531204 c0,6.047988695150615 -5.407653814852238,10.954361584943534 -12.065076511359214,10.954361584943534 " style="fill:#fff" stroke-width="0" id="svg_44" filter="" opacity="1"/></g><g style="stroke-width:.8841" stroke-width="0" id="svg_45" class="" filter="" opacity="1"><path d="m242.14407130893932,197.27468377535024 c0,20.686421736180783 16.76372682604194,37.45873213970662 37.45873213970662,37.45873213970662 c20.669254581213,0 37.441564984738825,-16.760293395048382 37.441564984738825,-37.45873213970662 c0,-20.669254581213 -16.767160257035496,-37.424397829771046 -37.441564984738825,-37.424397829771046 c-20.686421736180783,0 -37.45873213970662,16.751709817564493 -37.45873213970662,37.424397829771046 " style="fill:#fff" stroke-width="0" id="svg_46" filter="" opacity="1"/></g><g style="stroke-width:.8841" stroke-width="0" id="svg_47" class="" filter="" opacity="1"><path d="m251.2513153236793,199.39970737878957 c0,13.723423681247235 11.119166272634269,24.840873238384727 24.840873238384727,24.840873238384727 c13.737157405221463,0 24.858040393352507,-11.122599703627825 24.858040393352507,-24.840873238384727 s-11.119166272634269,-24.858040393352507 -24.858040393352507,-24.858040393352507 c-13.723423681247235,0 -24.840873238384727,11.132899996608497 -24.840873238384727,24.858040393352507 " style="fill:#414042" stroke-width="0" id="svg_48" filter="" opacity="1"/></g></g></g></svg>