<svg width="176.532" height="176.532" xmlns="http://www.w3.org/2000/svg">

 <g>
  <title>background</title>
  <rect fill="none" id="canvas_background" height="402" width="582" y="-1" x="-1"/>
 </g>
 <g>
  <title>Layer 1</title>
  <g id="svg_1">
   <path id="svg_2" fill="#f6c6b8" d="m152.928,85.912l-59.89,-49.406c-2.771,-2.287 -6.773,-2.287 -9.545,0l-59.89,49.406c-1.728,1.425 -2.728,3.546 -2.728,5.785l0,74.544c0,4.143 3.357,7.5 7.5,7.5l119.779,0c4.143,0 7.5,-3.357 7.5,-7.5l0,-74.544c0.002,-2.239 -0.998,-4.36 -2.726,-5.785zm-56.732,72.829l-15.86,0l0,-41.524l15.859,0l0,41.524l0.001,0zm44.46,0l-29.46,0l0,-49.024c0,-4.143 -3.357,-7.5 -7.5,-7.5l-30.86,0c-4.143,0 -7.5,3.357 -7.5,7.5l0,49.024l-29.46,0l0,-63.508l52.39,-43.219l52.39,43.219l0,63.508z"/>
   <path id="svg_3" fill="#f6c6b8" d="m173.72,70.866c-16.706,-13.382 -32.458,-26.178 -49.561,-40.261c-5.109,-4.591 -10.479,-8.938 -15.675,-13.144c-5.087,-4.118 -10.348,-8.377 -15.201,-12.745c-2.854,-2.568 -7.182,-2.568 -10.035,0c-4.854,4.368 -10.114,8.627 -15.201,12.745c-5.195,4.205 -10.565,8.553 -15.675,13.144c-17.102,14.084 -32.854,26.879 -49.56,40.261c-3.233,2.589 -3.755,7.31 -1.165,10.542c2.589,3.232 7.311,3.755 10.542,1.165c16.802,-13.457 32.64,-26.324 49.845,-40.493c0.085,-0.069 0.168,-0.141 0.25,-0.215c4.854,-4.368 10.114,-8.627 15.201,-12.745c3.559,-2.88 7.199,-5.827 10.781,-8.873c3.582,3.046 7.223,5.993 10.781,8.873c5.087,4.118 10.348,8.377 15.201,12.745c0.082,0.074 0.165,0.146 0.25,0.215c17.204,14.169 33.043,27.036 49.845,40.493c1.384,1.108 3.039,1.646 4.684,1.646c2.198,0 4.377,-0.962 5.858,-2.812c2.59,-3.231 2.068,-7.952 -1.165,-10.541z"/>
  </g>
  <g id="svg_4"/>
  <g id="svg_5"/>
  <g id="svg_6"/>
  <g id="svg_7"/>
  <g id="svg_8"/>
  <g id="svg_9"/>
  <g id="svg_10"/>
  <g id="svg_11"/>
  <g id="svg_12"/>
  <g id="svg_13"/>
  <g id="svg_14"/>
  <g id="svg_15"/>
  <g id="svg_16"/>
  <g id="svg_17"/>
  <g id="svg_18"/>
 </g>
</svg>